<svg width="28" height="28" viewBox="0 0 28 28" fill="none" xmlns="http://www.w3.org/2000/svg">
<g clip-path="url(#clip0_72_17770)">
<path fillRule="evenodd" clip-rule="evenodd" d="M25.979 21.4576V6.54205H1.36133V21.4576H25.979Z" fill="white"/>
<path fillRule="evenodd" clip-rule="evenodd" d="M25.979 21.4576V6.54205H1.36133V21.4576H25.979Z" fill="#33348E"/>
<path fillRule="evenodd" clip-rule="evenodd" d="M16.5237 21.4576V16.2536H25.979V11.7461H16.5237V6.54205H10.6838V11.7461H1.36133V16.2536H10.6838V21.4576H16.5237Z" fill="white"/>
<path d="M4.35932 6.54205L25.979 19.6419V21.4579H23.0343L1.36133 8.32575V6.54205H4.35932Z" fill="white"/>
<path d="M22.9811 6.54205L1.36133 19.6419V21.4579H4.30609L25.979 8.32575V6.54205H22.9811Z" fill="white"/>
<path fillRule="evenodd" clip-rule="evenodd" d="M25.979 12.5612H15.4508V6.54205H11.8996V12.5612H1.36133V15.4385H11.8996V21.4576H15.4508V15.4385H25.979V12.5612Z" fill="#CC2229"/>
<path d="M1.37253 6.54205L9.92472 11.7461H8.00529L1.36133 7.70312V6.54205H1.37253ZM1.36133 21.4317V21.4579H3.23747L10.6838 16.9268V16.2536H9.87065L1.36133 21.4317ZM25.979 21.4579V20.3707L19.213 16.2536H17.2936L25.8463 21.4579H25.979ZM23.9496 6.54205L16.5237 11.0608V11.7461H17.3168L25.869 6.54205H23.9496Z" fill="#CC2229"/>
</g>
<defs>
<clipPath id="clip0_72_17770">
<rect width="27" height="27" fill="white" transform="translate(0.169922 0.5)"/>
</clipPath>
</defs>
</svg>
